<svg xmlns="http://www.w3.org/2000/svg" width="512" height="512" viewBox="0 0 512 512">
  <defs>
    <style>
      .cls-1, .cls-3 {
        fill: #fff;
      }

      .cls-1 {
        stroke: #007ed3;
        stroke-linejoin: round;
        stroke-width: 25px;
      }

      .cls-2 {
        fill: #007ed3;
      }

      .cls-2, .cls-3 {
        fill-rule: evenodd;
      }
    </style>
  </defs>
  <circle id="Body" class="cls-1" cx="256" cy="256" r="244"/>
  <path id="Mask" class="cls-2" d="M255.54,77.045c110.267,0,199.657,89.442,199.657,199.773s-89.39,94.824-199.657,94.824S55.883,387.15,55.883,276.818,145.272,77.045,255.54,77.045Z"/>
  <path id="Normal_Eyes" data-name="Normal Eyes" class="cls-3" d="M177.136,170.9c23.267,0,42.129,32.126,42.129,71.754s-18.862,71.755-42.129,71.755-42.13-32.126-42.13-71.755S153.868,170.9,177.136,170.9Zm158.648,0c23.276,0,42.145,32.126,42.145,71.754s-18.869,71.755-42.145,71.755-42.145-32.126-42.145-71.755S312.508,170.9,335.784,170.9Z"/>
</svg>
